PathFileType  4	(X/Y/Z) /root/TVB/SAM4Dcap/opencap/output/Data/subject2_Session0/MarkerData/mmpose_0.8/2-cameras/PreAugmentation
DataRate	CameraRate	NumFrames	NumMarkers	Units	OrigDataRate	OrigDataStartFrame	OrigNumFrames
60.0	60.0	17	20	m	60.0	20	152
Frame#	Time	Neck			RShoulder			RElbow			RWrist			LShoulder			LElbow			LWrist			midHip			RHip			RKnee			RAnkle			LHip			LKnee			LAnkle			LBigToe			LSmallToe			LHeel			RBigToe			RSmallToe			RHeel			
		X1	Y1	Z1	X2	Y2	Z2	X3	Y3	Z3	X4	Y4	Z4	X5	Y5	Z5	X6	Y6	Z6	X7	Y7	Z7	X8	Y8	Z8	X9	Y9	Z9	X10	Y10	Z10	X11	Y11	Z11	X12	Y12	Z12	X13	Y13	Z13	X14	Y14	Z14	X15	Y15	Z15	X16	Y16	Z16	X17	Y17	Z17	X18	Y18	Z18	X19	Y19	Z19	X20	Y20	Z20	

20	0.3166667	0.9850200	1.0807000	-0.6086000	0.9956600	1.0759800	-0.4378300	0.9473100	0.7753100	-0.3488000	0.9919300	0.4792800	-0.2703100	0.9840900	1.0848000	-0.7790500	0.9400900	0.7770700	-0.8411800	1.0017200	0.4965600	-0.9093300	1.0128100	0.5455000	-0.5992300	1.0206400	0.5476200	-0.4751500	0.9713000	0.0784400	-0.4491600	0.9049900	-0.4239800	-0.3875900	1.0101400	0.5447400	-0.7232600	0.9464800	0.0652200	-0.7677400	0.9022500	-0.4133800	-0.8157000	1.0514200	-0.4822200	-0.8705300	1.0454800	-0.4792300	-0.8687100	0.8799300	-0.4524700	-0.7978500	1.0839600	-0.4729300	-0.3693600	1.0774900	-0.4718600	-0.3693700	0.8677400	-0.4700500	-0.3936200
21	0.3333333	0.9840800	1.0805300	-0.6075700	0.9954500	1.0761100	-0.4370900	0.9473500	0.7756000	-0.3490200	0.9907100	0.4790800	-0.2691800	0.9821700	1.0844600	-0.7776800	0.9438800	0.7777800	-0.8424300	1.0017200	0.4940900	-0.9093900	1.0130800	0.5458900	-0.5982300	1.0215000	0.5480700	-0.4748400	0.9678400	0.0778000	-0.4480700	0.9058500	-0.4225000	-0.3880500	1.0092200	0.5455400	-0.7216000	0.9487700	0.0642200	-0.7674300	0.9015300	-0.4172600	-0.8171400	1.0757300	-0.4757800	-0.8573600	1.0687600	-0.4737600	-0.8565700	0.8760900	-0.4591400	-0.8035600	1.0831600	-0.4720200	-0.3695500	1.0763400	-0.4709900	-0.3695200	0.8680200	-0.4695200	-0.3934400
22	0.3500000	0.9840000	1.0812900	-0.6077100	0.9960600	1.0777500	-0.4375200	0.9464200	0.7765600	-0.3501200	0.9902900	0.4805700	-0.2690700	0.9809600	1.0844400	-0.7776900	0.9407600	0.7785500	-0.8415300	1.0028900	0.4931500	-0.9096800	1.0118400	0.5523000	-0.5990700	1.0201600	0.5533400	-0.4748000	0.9660000	0.0796500	-0.4478100	0.9044400	-0.4245000	-0.3892400	1.0085400	0.5522800	-0.7233100	0.9516200	0.0661400	-0.7685100	0.9011500	-0.4140800	-0.8164500	1.0702900	-0.4766600	-0.8624300	1.0642400	-0.4742000	-0.8608800	0.8763200	-0.4548300	-0.7991100	1.0840400	-0.4720300	-0.3692300	1.0774200	-0.4710400	-0.3693100	0.8673700	-0.4709100	-0.3957500
23	0.3666667	0.9839000	1.0815000	-0.6082400	0.9959600	1.0778000	-0.4375600	0.9470100	0.7773100	-0.3498800	0.9909300	0.4807900	-0.2698900	0.9810800	1.0847900	-0.7786700	0.9432600	0.7793400	-0.8420300	1.0014500	0.4921500	-0.9096300	1.0123900	0.5488200	-0.5969800	1.0208800	0.5504100	-0.4730200	0.9674100	0.0780300	-0.4478900	0.9056100	-0.4221900	-0.3887200	1.0090200	0.5486400	-0.7209300	0.9490500	0.0661500	-0.7674000	0.9016200	-0.4156800	-0.8175000	1.0801200	-0.4746800	-0.8560400	1.0745200	-0.4725200	-0.8545800	0.8762900	-0.4573700	-0.8034900	1.0807600	-0.4716700	-0.3674900	1.0737900	-0.4705900	-0.3676400	0.8683500	-0.4685400	-0.3933900
24	0.3833333	0.9850700	1.0819700	-0.6079900	0.9967800	1.0782500	-0.4374100	0.9458600	0.7768800	-0.3502900	0.9910800	0.4812900	-0.2691900	0.9825000	1.0852100	-0.7783300	0.9400300	0.7799700	-0.8410300	0.9979000	0.4933500	-0.9081100	1.0127900	0.5582100	-0.5997800	1.0212600	0.5594400	-0.4760400	0.9678800	0.0805700	-0.4483700	0.9050900	-0.4228900	-0.3877400	1.0093800	0.5584500	-0.7234900	0.9517200	0.0679100	-0.7694000	0.9022100	-0.4148800	-0.8177000	1.0707100	-0.4783700	-0.8624800	1.0643000	-0.4759700	-0.8611900	0.8766400	-0.4574300	-0.8013300	1.0801800	-0.4726500	-0.3683000	1.0731000	-0.4715900	-0.3683500	0.8687000	-0.4696800	-0.3940500
25	0.4000000	0.9842500	1.0811400	-0.6081700	0.9947800	1.0772100	-0.4369400	0.9481600	0.7752200	-0.3487100	0.9901700	0.4789500	-0.2693800	0.9829400	1.0845500	-0.7789400	0.9393200	0.7785300	-0.8413900	0.9975600	0.4937400	-0.9084500	1.0139600	0.5528100	-0.5991700	1.0215900	0.5546100	-0.4748700	0.9688500	0.0808200	-0.4487700	0.9038900	-0.4214900	-0.3883000	1.0112300	0.5530500	-0.7236000	0.9511600	0.0688200	-0.7686800	0.9022000	-0.4158500	-0.8172400	1.0694100	-0.4772200	-0.8622600	1.0595400	-0.4759100	-0.8632800	0.8789800	-0.4582900	-0.8015800	1.0818200	-0.4723100	-0.3685500	1.0748700	-0.4712000	-0.3687100	0.8676800	-0.4678800	-0.3930800
26	0.4166667	0.9839200	1.0809300	-0.6079300	0.9946400	1.0769700	-0.4378600	0.9478200	0.7737500	-0.3487200	0.9903600	0.4805600	-0.2695400	0.9825400	1.0844700	-0.7778700	0.9395400	0.7798500	-0.8408900	1.0002700	0.4941800	-0.9092600	1.0117100	0.5529200	-0.5977600	1.0196900	0.5549700	-0.4742900	0.9726500	0.0805200	-0.4489400	0.9059900	-0.4217400	-0.3900200	1.0083100	0.5530400	-0.7213300	0.9457300	0.0676500	-0.7656600	0.9004700	-0.4159700	-0.8172000	1.0667300	-0.4784900	-0.8649800	1.0601000	-0.4760600	-0.8637400	0.8773200	-0.4565700	-0.8011700	1.0810600	-0.4727500	-0.3671600	1.0739900	-0.4718300	-0.3672000	0.8675200	-0.4689900	-0.3966600
27	0.4333333	0.9848800	1.0815900	-0.6081100	0.9953500	1.0779900	-0.4379400	0.9470000	0.7749300	-0.3491800	0.9889600	0.4811800	-0.2691900	0.9837200	1.0848100	-0.7780900	0.9375500	0.7827400	-0.8406700	0.9980700	0.4962000	-0.9092000	1.0132500	0.5581200	-0.5987800	1.0214900	0.5597300	-0.4761200	0.9686300	0.0824000	-0.4497100	0.9050000	-0.4205800	-0.3893900	1.0095600	0.5583700	-0.7214300	0.9520900	0.0678200	-0.7675100	0.9028400	-0.4172100	-0.8175000	1.0699400	-0.4782000	-0.8617100	1.0607900	-0.4766400	-0.8624000	0.8800300	-0.4577100	-0.8022500	1.0782900	-0.4738900	-0.3680900	1.0709400	-0.4728500	-0.3682300	0.8687600	-0.4677300	-0.3952800
28	0.4500000	0.9844300	1.0809700	-0.6082700	0.9947700	1.0772800	-0.4374500	0.9467300	0.7746400	-0.3492700	0.9888800	0.4802100	-0.2701800	0.9836300	1.0841000	-0.7788700	0.9388400	0.7807900	-0.8399300	0.9986700	0.4975500	-0.9076100	1.0103700	0.5528000	-0.5984300	1.0181300	0.5543300	-0.4752000	0.9692800	0.0808900	-0.4488300	0.9055500	-0.4222900	-0.3891800	1.0072400	0.5528800	-0.7216600	0.9486400	0.0664000	-0.7670500	0.9021100	-0.4156500	-0.8167700	1.0718600	-0.4759800	-0.8599100	1.0620700	-0.4745600	-0.8611800	0.8800600	-0.4552600	-0.8016500	1.0796400	-0.4730400	-0.3696300	1.0724700	-0.4719800	-0.3696300	0.8678600	-0.4692200	-0.3942800
29	0.4666667	0.9840500	1.0814300	-0.6088000	0.9953700	1.0775200	-0.4380500	0.9459400	0.7754200	-0.3493600	0.9895600	0.4820800	-0.2691200	0.9820700	1.0849200	-0.7791500	0.9381900	0.7769800	-0.8412800	1.0004700	0.4914800	-0.9093200	1.0109600	0.5522700	-0.5996000	1.0205700	0.5547800	-0.4752000	0.9713600	0.0808200	-0.4486700	0.9058100	-0.4233200	-0.3887400	1.0060900	0.5520000	-0.7241000	0.9484600	0.0672200	-0.7669500	0.9016700	-0.4168500	-0.8183200	1.0786500	-0.4760600	-0.8576600	1.0729400	-0.4737900	-0.8565400	0.8763500	-0.4584000	-0.8052900	1.0785200	-0.4730100	-0.3689100	1.0713600	-0.4720000	-0.3689700	0.8687600	-0.4707700	-0.3935500
30	0.4833333	0.9845500	1.0808400	-0.6081500	0.9963300	1.0773000	-0.4373500	0.9459200	0.7748100	-0.3485500	0.9885600	0.4817400	-0.2694900	0.9822300	1.0840900	-0.7787100	0.9401700	0.7785500	-0.8408700	0.9991600	0.4944000	-0.9088100	1.0106800	0.5508500	-0.5998800	1.0184300	0.5534000	-0.4764600	0.9683100	0.0812400	-0.4490400	0.9037200	-0.4249000	-0.3901600	1.0073200	0.5508800	-0.7233900	0.9511200	0.0678300	-0.7673200	0.9029100	-0.4161400	-0.8180700	1.0847000	-0.4734800	-0.8543100	1.0653600	-0.4739500	-0.8612200	0.8794700	-0.4570000	-0.8044500	1.0842500	-0.4735900	-0.3700400	1.0776900	-0.4727400	-0.3700300	0.8665000	-0.4733800	-0.3964000
31	0.5000000	0.9844900	1.0809300	-0.6076800	0.9952600	1.0775400	-0.4368000	0.9468200	0.7740200	-0.3488000	0.9903900	0.4809800	-0.2695400	0.9832600	1.0837900	-0.7783100	0.9446200	0.7768200	-0.8419300	1.0011400	0.4968700	-0.9092000	1.0122300	0.5523100	-0.5981300	1.0193800	0.5539200	-0.4744500	0.9668900	0.0824600	-0.4476700	0.9043500	-0.4210400	-0.3891000	1.0098000	0.5523200	-0.7216900	0.9537600	0.0688300	-0.7675800	0.9033200	-0.4136900	-0.8171300	1.0701400	-0.4764000	-0.8629200	1.0634800	-0.4739500	-0.8619100	0.8802200	-0.4532800	-0.8017600	1.0789900	-0.4725800	-0.3685500	1.0720200	-0.4714800	-0.3686500	0.8669000	-0.4687800	-0.3957300
32	0.5166667	0.9840600	1.0814500	-0.6077200	0.9955200	1.0776600	-0.4366800	0.9463600	0.7737600	-0.3492300	0.9903600	0.4813600	-0.2683100	0.9821300	1.0847700	-0.7784300	0.9421500	0.7758000	-0.8427100	1.0023700	0.4912100	-0.9092100	1.0126000	0.5515900	-0.5980900	1.0201100	0.5527400	-0.4743900	0.9670300	0.0788200	-0.4471200	0.9064900	-0.4206500	-0.3880200	1.0101600	0.5518900	-0.7218300	0.9508900	0.0658500	-0.7686400	0.9015200	-0.4163400	-0.8183400	1.0764900	-0.4754100	-0.8581200	1.0710000	-0.4731200	-0.8568200	0.8750900	-0.4578400	-0.8033600	1.0767800	-0.4736700	-0.3683200	1.0696800	-0.4725700	-0.3683200	0.8698000	-0.4677300	-0.3932400
33	0.5333333	0.9834400	1.0807100	-0.6079200	0.9953200	1.0771100	-0.4363600	0.9449300	0.7764000	-0.3497900	0.9896800	0.4812700	-0.2679200	0.9810800	1.0840500	-0.7792900	0.9407200	0.7779700	-0.8415300	0.9992800	0.4917900	-0.9079500	1.0107000	0.5526700	-0.5980500	1.0185500	0.5545100	-0.4738800	0.9644000	0.0786900	-0.4472300	0.9041600	-0.4248700	-0.3900700	1.0078600	0.5522900	-0.7222000	0.9517900	0.0657700	-0.7684600	0.9037600	-0.4170500	-0.8157800	1.0751900	-0.4761800	-0.8609800	1.0681700	-0.4741700	-0.8601600	0.8799500	-0.4581500	-0.7993600	1.0811500	-0.4738100	-0.3674600	1.0742900	-0.4729200	-0.3676900	0.8676700	-0.4731400	-0.3975000
34	0.5500000	0.9834600	1.0809100	-0.6077100	0.9955500	1.0773700	-0.4372300	0.9448100	0.7743700	-0.3489900	0.9904900	0.4805700	-0.2677900	0.9809100	1.0840700	-0.7780800	0.9389800	0.7742200	-0.8425200	0.9999400	0.4906500	-0.9090100	1.0120200	0.5465700	-0.5974700	1.0201100	0.5489000	-0.4736300	0.9661900	0.0793100	-0.4459100	0.9039800	-0.4213500	-0.3891000	1.0087300	0.5461700	-0.7213300	0.9535800	0.0681100	-0.7685900	0.9036700	-0.4169500	-0.8176000	1.0800800	-0.4745900	-0.8572800	1.0745100	-0.4724200	-0.8557800	0.8782100	-0.4593400	-0.8037000	1.0817700	-0.4716200	-0.3692800	1.0750200	-0.4705700	-0.3693200	0.8680900	-0.4686000	-0.3952400
35	0.5666667	0.9842800	1.0806000	-0.6086300	0.9955500	1.0775500	-0.4373800	0.9435700	0.7747700	-0.3492400	0.9883300	0.4815100	-0.2696600	0.9826400	1.0832500	-0.7796000	0.9430800	0.7765000	-0.8417600	1.0011200	0.4925700	-0.9084100	1.0117100	0.5498200	-0.5975100	1.0190700	0.5515700	-0.4742500	0.9674100	0.0794800	-0.4468900	0.9059300	-0.4224600	-0.3893300	1.0091600	0.5499400	-0.7207800	0.9517500	0.0673700	-0.7685800	0.9025900	-0.4162400	-0.8173400	1.0786100	-0.4756900	-0.8576800	1.0730500	-0.4733400	-0.8562200	0.8782800	-0.4572700	-0.8016500	1.0817300	-0.4737800	-0.3663400	1.0748900	-0.4727000	-0.3664400	0.8703300	-0.4688200	-0.3953400
36	0.5833333	0.9842200	1.0808100	-0.6082800	0.9961400	1.0766800	-0.4373300	0.9461000	0.7761900	-0.3491000	0.9876100	0.4821000	-0.2695500	0.9816900	1.0844400	-0.7790700	0.9428100	0.7797900	-0.8419800	1.0000500	0.4961500	-0.9080000	1.0124500	0.5564400	-0.5975500	1.0195500	0.5576300	-0.4734700	0.9666300	0.0798500	-0.4471200	0.9047600	-0.4244400	-0.3890200	1.0104700	0.5565500	-0.7216000	0.9508500	0.0656600	-0.7694200	0.9009600	-0.4167600	-0.8163600	1.0745000	-0.4773000	-0.8593500	1.0674000	-0.4753000	-0.8585800	0.8773500	-0.4574700	-0.8004900	1.0810600	-0.4750300	-0.3671800	1.0740700	-0.4740000	-0.3673500	0.8682400	-0.4713900	-0.3948300
